<?xml version="1.0" encoding="utf-8"?>
<!-- Generator: Adobe Illustrator 22.1.0, SVG Export Plug-In . SVG Version: 6.00 Build 0)  -->
<svg version="1.1" id="Layer_1" xmlns="http://www.w3.org/2000/svg" xmlns:xlink="http://www.w3.org/1999/xlink" x="0px" y="0px"
	 viewBox="0 0 34 34" style="enable-background:new 0 0 34 34;" xml:space="preserve">
<g>
	<style>
		.discord {
			fill: #454FBF;
		}
	</style>
	<path class="discord" d="M28.8,6c-2.2-1-4.6-1.8-7-2.2c-0.3,0.5-0.7,1.3-0.9,1.9c-2.6-0.4-5.2-0.4-7.8,0c-0.2-0.6-0.6-1.3-0.9-1.9
		C9.7,4.3,7.4,5,5.2,6.1c-4.4,6.7-5.6,13.2-5,19.7c2.9,2.2,5.8,3.5,8.6,4.4c0.7-1,1.3-2,1.8-3c-1-0.4-2-0.9-2.9-1.4
		c0.2-0.2,0.5-0.4,0.7-0.6c5.6,2.6,11.7,2.6,17.2,0c0.2,0.2,0.5,0.4,0.7,0.6c-0.9,0.6-1.9,1-2.9,1.4c0.5,1.1,1.1,2.1,1.8,3
		c2.8-0.9,5.7-2.2,8.6-4.4C34.6,18.3,32.6,11.8,28.8,6z M11.4,21.8c-1.7,0-3.1-1.6-3.1-3.5s1.3-3.5,3.1-3.5c1.7,0,3.1,1.6,3.1,3.5
		C14.4,20.2,13.1,21.8,11.4,21.8z M22.6,21.8c-1.7,0-3.1-1.6-3.1-3.5s1.3-3.5,3.1-3.5c1.7,0,3.1,1.6,3.1,3.5
		C25.7,20.2,24.4,21.8,22.6,21.8z"/>
</g>
</svg>
